<?xml version="1.0" encoding="UTF-8"?>
<svg width="24" height="24" viewBox="0 0 24 24" fill="none" xmlns="http://www.w3.org/2000/svg">
  <path d="M12 2C6.477 2 2 6.477 2 12C2 16.418 4.865 20.166 8.839 21.489C9.339 21.581 9.521 21.277 9.521 21.017C9.521 20.781 9.512 20.055 9.508 19.041C6.726 19.745 6.139 17.7 6.139 17.7C5.685 16.569 5.029 16.347 5.029 16.347C4.121 15.755 5.097 15.768 5.097 15.768C6.101 15.832 6.629 16.789 6.629 16.789C7.521 18.317 8.97 17.896 9.539 17.654C9.631 17.011 9.889 16.573 10.175 16.303C7.954 16.006 5.62 15.187 5.62 11.437C5.62 10.387 6.009 9.493 6.649 8.793C6.546 8.541 6.203 7.523 6.747 6.147C6.747 6.147 7.586 5.882 9.497 7.164C10.2999 6.94893 11.15 6.84047 12 6.842C12.85 6.84047 13.7 6.94893 14.503 7.164C16.414 5.882 17.251 6.147 17.251 6.147C17.797 7.523 17.454 8.541 17.351 8.793C17.991 9.493 18.378 10.387 18.378 11.437C18.378 15.194 16.041 16.003 13.813 16.295C14.172 16.623 14.491 17.207 14.491 18.052C14.491 19.291 14.479 20.291 14.479 21.017C14.479 21.277 14.659 21.583 15.167 21.481C19.137 20.161 22 16.416 22 12C22 6.477 17.523 2 12 2Z" fill="currentColor"/>
</svg> 